<?xml version="1.0" encoding="UTF-8" standalone="no"?><!DOCTYPE svg PUBLIC "-//W3C//DTD SVG 1.1//EN" "http://www.w3.org/Graphics/SVG/1.1/DTD/svg11.dtd"><svg width="100%" height="100%" viewBox="0 0 2134 2134" version="1.1" xmlns="http://www.w3.org/2000/svg" xmlns:xlink="http://www.w3.org/1999/xlink" xml:space="preserve" xmlns:serif="http://www.serif.com/" style="fill-rule:evenodd;clip-rule:evenodd;stroke-linejoin:round;stroke-miterlimit:2;"><g><path d="M176.363,1243.02l1351.45,0l-543.15,537.283c-69.263,68.492 -69.863,180.221 -1.371,249.442c68.491,69.267 180.179,69.863 249.446,1.367l848.233,-839.034c33.525,-33.175 52.358,-78.291 52.358,-125.425c0,-47.133 -18.833,-92.208 -52.358,-125.387l-848.233,-839.033c-69.267,-68.492 -180.95,-67.934 -249.446,1.375c-68.492,69.22 -67.892,180.904 1.371,249.395l543.15,537.321l-1351.45,0c-97.392,0 -176.367,78.938 -176.367,176.329c-0.004,97.43 78.975,176.367 176.363,176.367Z" style="fill:#4b4b4b;fill-rule:nonzero;"/></g></svg>